<svg width="111" height="43" viewBox="0 0 111 43" fill="none" xmlns="http://www.w3.org/2000/svg">
<path d="M47.6497 41.2581C47.6497 41.4957 47.5957 41.7226 47.4877 41.9386C47.0556 42.1762 46.602 42.3382 46.1268 42.4246C45.6731 42.5326 45.2195 42.5866 44.7659 42.5866C44.5499 42.5866 44.3122 42.5758 44.053 42.5542C43.8154 42.5542 43.5994 42.5326 43.405 42.4894C43.3402 42.4678 43.2646 42.4246 43.1782 42.3598C43.0918 42.295 43.0053 42.2626 42.9189 42.2626C42.7029 42.2626 42.4977 42.295 42.3033 42.3598C42.1089 42.4462 41.9037 42.4894 41.6877 42.4894C41.5796 42.4894 41.4716 42.457 41.3636 42.3922C41.2772 42.3274 41.18 42.2842 41.072 42.2626C40.9208 42.2194 40.7696 42.2086 40.6184 42.2302C40.4672 42.2518 40.3052 42.2626 40.1323 42.2626C39.8947 42.2626 39.6787 42.2302 39.4843 42.1654C39.3115 42.1006 39.1495 41.9818 38.9983 41.809C38.4582 41.7442 37.929 41.6362 37.4105 41.4849C36.8921 41.3553 36.3737 41.2041 35.8552 41.0313C35.3368 40.8801 34.8184 40.7289 34.2999 40.5777C33.7815 40.4481 33.2522 40.3617 32.7122 40.3185C32.5826 40.1672 32.4314 40.0484 32.2586 39.962C32.0858 39.8972 31.9562 39.7784 31.8697 39.6056C31.7617 39.6056 31.6861 39.6164 31.6429 39.638C31.5997 39.6812 31.5241 39.7028 31.4161 39.7028C31.0489 39.4004 30.6493 39.1412 30.2172 38.9252C29.8068 38.7091 29.3748 38.5039 28.9211 38.3095C28.4891 38.1151 28.0571 37.9099 27.625 37.6939C27.2146 37.4995 26.8258 37.2402 26.4586 36.9162H26.2965C26.1237 36.9378 25.9725 36.8946 25.8429 36.7866C25.7349 36.7002 25.5945 36.657 25.4217 36.657C25.3137 36.657 25.2273 36.6678 25.1625 36.6894C25.0977 36.5166 25.0004 36.3762 24.8708 36.2682C24.7412 36.1602 24.6008 36.0521 24.4496 35.9441C24.32 35.8577 24.1904 35.7605 24.0608 35.6525C23.9312 35.5661 23.834 35.4473 23.7692 35.2961C23.2291 35.1017 22.6999 34.8641 22.1814 34.5832C21.6846 34.324 21.2418 33.9784 20.8529 33.5464C20.4209 33.5032 20.0645 33.3736 19.7837 33.1575C19.5028 32.9199 19.2436 32.6283 19.006 32.2827C18.4876 32.1099 18.0123 31.883 17.5803 31.6022C17.1483 31.3214 16.7162 31.0298 16.2842 30.7274C15.8738 30.4249 15.431 30.1549 14.9557 29.9173C14.5021 29.6581 13.9837 29.4745 13.4004 29.3665C13.3788 29.2153 13.314 29.1072 13.206 29.0424C13.098 28.956 12.9684 28.8912 12.8172 28.848C12.6876 28.7832 12.5579 28.7292 12.4283 28.686C12.2987 28.6428 12.2015 28.5564 12.1367 28.4268C12.0719 28.4268 12.0071 28.4268 11.9423 28.4268C11.8775 28.4052 11.8127 28.3944 11.7479 28.3944C11.6831 28.3944 11.6075 28.4052 11.5211 28.4268C11.4563 28.4268 11.3915 28.4268 11.3267 28.4268L11.3591 28.3296C11.3591 28.2432 11.3267 28.1892 11.2619 28.1676C11.2187 28.146 11.1538 28.1244 11.0674 28.1028C10.981 28.0812 10.9054 28.0488 10.8406 28.0056C10.7758 27.9624 10.7434 27.8652 10.7434 27.7139H10.6462C10.4086 27.7139 10.1926 27.6707 9.99816 27.5843C9.80375 27.4979 9.58773 27.4331 9.35012 27.3899C9.30691 27.6275 9.28531 27.8544 9.28531 28.0704V28.6536C9.28531 29.6257 9.39332 30.6518 9.60933 31.7318C9.82535 32.7903 10.1602 33.7408 10.6138 34.5832C11.0674 34.7561 11.4563 34.9829 11.7803 35.2637C12.1043 35.5445 12.4175 35.8685 12.72 36.2358C12.7416 36.819 12.5255 37.305 12.0719 37.6939C11.6399 38.1043 11.1322 38.3095 10.549 38.3095C10.225 38.3095 9.92256 38.2231 9.64174 38.0503C9.38252 37.8991 9.1665 37.6723 8.99369 37.3698C8.86408 37.3698 8.74527 37.3914 8.63726 37.4346C8.52926 37.4995 8.39965 37.5319 8.24844 37.5319C8.18363 37.5319 8.11883 37.5211 8.05402 37.4995C7.83801 37.1322 7.62199 36.8082 7.40597 36.5274C7.21156 36.2466 7.08195 35.8685 7.01715 35.3933C6.77953 35.2853 6.62832 35.0909 6.56351 34.8101C6.52031 34.5292 6.4015 34.3024 6.20709 34.1296C6.12068 33.1575 6.00187 32.1855 5.85066 31.2134C5.72105 30.2413 5.65625 29.2693 5.65625 28.2972C5.65625 28.0812 5.66705 27.8652 5.68865 27.6491C5.71025 27.4115 5.73185 27.1739 5.75346 26.9363C5.71025 26.8283 5.64545 26.7311 5.55904 26.6447C5.49424 26.5367 5.44023 26.4287 5.39703 26.3206C4.965 26.4287 4.51137 26.5367 4.03613 26.6447C3.5825 26.7311 3.11806 26.7743 2.64283 26.7743C2.34041 26.7743 1.97318 26.7311 1.54115 26.6447C1.10912 26.5367 0.774295 26.3962 0.536678 26.2234C0.363865 26.1154 0.245057 25.921 0.180252 25.6402C0.0938457 25.3378 0.0506425 25.0786 0.0506425 24.8625C0.0506425 24.4953 0.115447 24.1281 0.245057 23.7609C0.374666 23.372 0.547478 23.0372 0.763494 22.7564C1.82197 22.3244 2.80484 21.7951 3.71211 21.1687C4.64097 20.5422 5.54824 19.8618 6.4339 19.1273C6.45551 18.9113 6.48791 18.6953 6.53111 18.4793C6.59592 18.2633 6.62832 18.0364 6.62832 17.7988C6.62832 17.5396 6.56351 17.2912 6.4339 17.0536C6.56351 16.924 6.62832 16.762 6.62832 16.5675C6.62832 16.3515 6.68232 16.1571 6.79033 15.9843V15.7899C6.79033 15.7035 6.77953 15.6171 6.75793 15.5307C6.75793 15.4443 6.72553 15.3579 6.66072 15.2714C6.81193 14.429 6.93074 13.5973 7.01715 12.7765C7.10355 11.934 7.14676 11.0699 7.14676 10.1843C7.14676 10.1195 7.17916 9.94666 7.24396 9.66584C7.33037 9.36342 7.38437 9.1582 7.40597 9.0502C7.49238 8.55336 7.54638 8.06732 7.56799 7.59209C7.61119 7.09525 7.66519 6.59842 7.73 6.10158C7.7516 5.92877 7.7948 5.70195 7.85961 5.42113C7.92441 5.14031 7.95681 4.9459 7.95681 4.83789C7.95681 4.68668 7.92441 4.58947 7.85961 4.54627C7.8164 4.48146 7.7732 4.38426 7.73 4.25465C7.85961 3.75781 7.92441 3.26098 7.92441 2.76414C7.94601 2.2457 7.98922 1.73807 8.05402 1.24123C8.42125 1.09002 8.71287 0.938808 8.92888 0.787597C9.1449 0.636386 9.45812 0.560781 9.86855 0.560781H9.93336C9.97656 0.82 10.0738 1.06842 10.225 1.30603C10.3762 1.52205 10.5274 1.74887 10.6786 1.98648C10.8514 2.2025 11.0026 2.41852 11.1322 2.63453C11.2619 2.82895 11.3267 3.02336 11.3267 3.21777C11.3267 3.585 11.2943 3.98463 11.2295 4.41666C11.1646 4.84869 11.1106 5.24832 11.0674 5.61555C10.9594 6.58762 10.8622 7.54889 10.7758 8.49936C10.6894 9.42822 10.5598 10.3787 10.387 11.3508C10.4518 11.6532 10.4842 11.934 10.4842 12.1932C10.4842 12.5821 10.4518 12.9709 10.387 13.3597C10.3222 13.7485 10.2898 14.1482 10.2898 14.5586C10.2898 14.753 10.3006 14.9582 10.3222 15.1742C10.3654 15.3903 10.4302 15.5847 10.5166 15.7575C11.2511 15.5631 11.9099 15.1634 12.4931 14.5586C12.5795 14.4722 12.666 14.3642 12.7524 14.2346C12.8604 14.0834 12.9684 13.9646 13.0764 13.8781C13.2924 13.7053 13.5192 13.5541 13.7568 13.4245C14.0161 13.2733 14.2645 13.1221 14.5021 12.9709C15.0637 12.6037 15.6038 12.2256 16.1222 11.8368C16.6622 11.4264 17.2023 11.0267 17.7423 10.6379C19.3408 9.47143 20.8853 8.26174 22.3759 7.00885C23.888 5.73436 25.3569 4.39506 26.7826 2.99096C26.8474 2.62373 26.977 2.33211 27.1714 2.11609C27.3658 1.90008 27.5386 1.64086 27.6898 1.33844C28.1003 1.18723 28.4567 0.96041 28.7591 0.657988C28.8887 0.701191 29.0183 0.733593 29.1479 0.755195C29.2992 0.755195 29.4396 0.755195 29.5692 0.755195C29.7204 0.755195 29.8608 0.765996 29.9904 0.787597C30.1416 0.787597 30.2712 0.82 30.3792 0.884804C30.4008 1.20883 30.4332 1.50045 30.4764 1.75967C30.5196 2.01889 30.6493 2.2673 30.8653 2.50492C30.8653 2.54812 30.8653 2.59133 30.8653 2.63453C30.8869 2.67773 30.8977 2.72094 30.8977 2.76414C30.8977 3.00176 30.8329 3.19617 30.7033 3.34738C30.5737 3.49859 30.498 3.68221 30.4764 3.89822L28.7915 5.58314C28.2299 6.14478 27.7114 6.74963 27.2362 7.39768C27.0634 7.41928 26.9122 7.47328 26.7826 7.55969C26.653 7.64609 26.5234 7.7433 26.3937 7.85131C26.2857 7.93771 26.1669 8.02412 26.0373 8.11053C25.9077 8.19693 25.7673 8.26174 25.6161 8.30494C25.2273 8.82338 24.7844 9.29861 24.2876 9.73064C23.7908 10.1411 23.2831 10.5407 22.7647 10.9295C22.2462 11.3184 21.7278 11.718 21.2094 12.1284C20.7125 12.5172 20.2481 12.9493 19.8161 13.4245C19.3624 13.6405 18.9196 13.8997 18.4876 14.2022C18.0771 14.483 17.7423 14.8394 17.4831 15.2714H17.3211C17.2131 15.2714 17.1267 15.3038 17.0619 15.3687C16.9971 15.4119 16.9107 15.4335 16.8027 15.4335C15.6362 16.4487 14.4265 17.41 13.1736 18.3173C11.9207 19.2029 10.7218 20.175 9.57693 21.2335V22.0435C9.94416 22.2596 10.3438 22.4648 10.7758 22.6592C11.2078 22.832 11.6291 23.0264 12.0395 23.2424C12.4715 23.4584 12.8712 23.6961 13.2384 23.9553C13.6272 24.1929 13.962 24.4845 14.2429 24.8301C14.2861 24.8085 14.3401 24.7977 14.4049 24.7977C14.5993 24.7977 14.7505 24.8625 14.8585 24.9921C14.9665 25.1002 15.1501 25.1326 15.4094 25.0894C15.4958 25.435 15.6902 25.6834 15.9926 25.8346C16.295 25.9858 16.5974 26.1154 16.8999 26.2234C17.1591 26.4827 17.3967 26.7311 17.6127 26.9687C17.8287 27.1847 18.142 27.3251 18.5524 27.3899C18.5956 27.4763 18.628 27.5735 18.6496 27.6815C18.6712 27.7896 18.7144 27.8868 18.7792 27.9732C19.1896 28.1028 19.5785 28.2864 19.9457 28.524C20.3345 28.7616 20.7125 29.01 21.0798 29.2693C21.447 29.5069 21.8142 29.7445 22.1814 29.9821C22.5703 30.1981 22.9807 30.3709 23.4127 30.5005C23.4775 30.7166 23.5963 30.8678 23.7692 30.9542C23.9636 31.0406 24.1148 31.1702 24.2228 31.343H24.806C24.8708 31.451 24.9572 31.559 25.0653 31.667C25.1733 31.7534 25.2489 31.883 25.2921 32.0559C25.4649 32.0991 25.6593 32.1639 25.8753 32.2503C26.0913 32.3151 26.2857 32.4015 26.4586 32.5095C26.5234 32.5743 26.5666 32.6499 26.5882 32.7363C26.6314 32.8227 26.6962 32.8983 26.7826 32.9631C26.9122 33.0711 27.1066 33.1575 27.3658 33.2223C27.6466 33.2655 27.8843 33.3412 28.0787 33.4492C28.4675 33.6652 28.8455 33.9028 29.2128 34.162C29.58 34.4428 29.9688 34.7021 30.3792 34.9397L31.6429 35.6201C31.8589 35.7281 32.0534 35.8469 32.2262 35.9765C32.4206 36.1062 32.615 36.225 32.8094 36.333C33.1982 36.5058 33.6087 36.6138 34.0407 36.657C34.4943 36.7218 34.9048 36.8406 35.272 37.0134C35.38 37.0782 35.4556 37.1538 35.4988 37.2402C35.542 37.3482 35.6176 37.4346 35.7256 37.4995C35.8984 37.6075 36.1685 37.6831 36.5357 37.7263C36.9029 37.7695 37.2053 37.8451 37.4429 37.9531C37.7454 38.0827 38.037 38.2015 38.3178 38.3095C38.6202 38.4391 38.9227 38.5903 39.2251 38.7631C39.8731 38.8063 40.5104 38.882 41.1368 38.99C41.7849 39.098 42.4221 39.206 43.0486 39.314C43.675 39.422 44.3014 39.5192 44.9279 39.6056C45.5759 39.692 46.224 39.7244 46.872 39.7028C46.872 39.746 46.8936 39.7676 46.9368 39.7676C47.0016 39.7892 47.0556 39.8 47.0988 39.8C47.2501 40.0376 47.3797 40.2753 47.4877 40.5129C47.5957 40.7505 47.6497 40.9989 47.6497 41.2581ZM52.0888 31.6346C52.024 31.9371 51.8836 32.1855 51.6676 32.3799C51.4732 32.5527 51.2355 32.6931 50.9547 32.8011C50.6739 32.9091 50.3823 32.9847 50.0799 33.0279C49.799 33.0495 49.5398 33.0603 49.3022 33.0603C49.1942 33.0603 49.0862 33.0603 48.9782 33.0603C48.8918 33.0387 48.7946 33.0279 48.6866 33.0279C48.5786 33.0279 48.5246 33.0819 48.5246 33.1899C48.5246 33.2979 48.4705 33.3736 48.3625 33.4168C48.2545 33.3736 48.1465 33.3412 48.0385 33.3196C47.9305 33.2979 47.8225 33.2871 47.7145 33.2871C47.5633 33.2871 47.4121 33.2979 47.2609 33.3196C47.1312 33.3412 47.0016 33.352 46.872 33.352C46.6992 33.352 46.5696 33.3304 46.4832 33.2871C46.4184 33.2439 46.3536 33.2007 46.2888 33.1575C46.2456 33.0927 46.1916 33.0279 46.1268 32.9631C46.0836 32.8983 46.008 32.8443 45.9 32.8011C45.7487 32.7363 45.6191 32.7255 45.5111 32.7687C45.4247 32.8119 45.2843 32.7471 45.0899 32.5743C44.8307 32.3583 44.6039 32.0991 44.4095 31.7966C44.2366 31.4726 44.0638 31.1378 43.891 30.7922C43.7182 30.4465 43.5346 30.1009 43.3402 29.7553C43.1458 29.4097 42.9189 29.1072 42.6597 28.848H42.4005C42.0117 28.848 41.7417 29.01 41.5904 29.3341C41.4824 29.2693 41.3744 29.1937 41.2664 29.1072C41.1584 28.9992 41.0396 28.9128 40.91 28.848C40.4132 28.9992 39.8947 29.1288 39.3547 29.2369C38.8146 29.3449 38.2746 29.3989 37.7346 29.3989H37.2809C37.1513 29.3989 37.0109 29.3773 36.8597 29.3341C36.6437 29.4205 36.4493 29.5285 36.2765 29.6581C36.1037 29.7661 35.9092 29.8201 35.6932 29.8201C35.5636 29.8201 35.4124 29.7769 35.2396 29.6905C35.11 29.6905 35.0452 29.7445 35.0452 29.8525C35.0668 29.9605 35.002 30.0145 34.8508 30.0145H34.5591C34.2567 30.0145 33.9543 30.0253 33.6519 30.0469C33.3711 30.0685 33.0794 30.0793 32.777 30.0793C32.3666 30.0793 31.9454 30.0253 31.5133 29.9173C31.4053 29.9821 31.2865 30.0145 31.1569 30.0145C31.0705 30.0577 31.0057 30.1333 30.9625 30.2413C30.9193 30.3277 30.8761 30.4141 30.8329 30.5005C30.7897 30.5654 30.7249 30.6302 30.6385 30.695C30.5737 30.7382 30.4764 30.749 30.3468 30.7274C30.3036 30.9866 30.1956 31.1918 30.0228 31.343C29.85 31.4942 29.7636 31.721 29.7636 32.0235C29.526 32.1531 29.3316 32.3151 29.1804 32.5095C29.0291 32.7039 28.8779 32.9091 28.7267 33.1251C28.5755 33.3412 28.4135 33.5464 28.2407 33.7408C28.0895 33.9352 27.8951 34.0864 27.6574 34.1944C27.5494 34.324 27.517 34.5292 27.5602 34.8101C27.3226 35.0045 27.031 35.1773 26.6854 35.3285C26.3397 35.4797 26.0157 35.5553 25.7133 35.5553C25.0869 35.5553 24.6548 35.2205 24.4172 34.5508C24.4172 34.3348 24.4388 34.108 24.482 33.8704C24.5036 33.6112 24.5468 33.3736 24.6116 33.1575C24.6764 32.9199 24.7736 32.7147 24.9032 32.5419C25.0329 32.3475 25.2165 32.2071 25.4541 32.1207C25.4541 31.9262 25.3893 31.7966 25.2597 31.7318C25.1301 31.6454 25.0761 31.505 25.0977 31.3106C25.6809 31.0298 26.1885 30.6626 26.6206 30.2089C27.0526 29.7553 27.4414 29.2801 27.7871 28.7832C28.1543 28.2648 28.5215 27.7463 28.8887 27.2279C29.256 26.7095 29.6664 26.245 30.12 25.8346V25.1542C30.7681 24.4629 31.1893 23.6853 31.3837 22.8212C31.6213 22.778 31.7725 22.67 31.8373 22.4972C31.9237 22.3244 31.967 22.1191 31.967 21.8815C32.075 21.8815 32.1398 21.8383 32.1614 21.7519C32.2046 21.6439 32.3018 21.6115 32.453 21.6547C32.6474 21.1363 32.8634 20.661 33.101 20.229C33.3387 19.797 33.5763 19.3649 33.8139 18.9329C34.0515 18.4793 34.2567 18.0148 34.4295 17.5396C34.6239 17.0644 34.7644 16.5351 34.8508 15.9519C35.1532 15.9303 35.3152 15.7899 35.3368 15.5307C35.38 15.2498 35.4232 15.0014 35.4664 14.7854C35.7904 14.483 36.028 14.1266 36.1793 13.7161C36.3521 13.3057 36.5033 12.8845 36.6329 12.4524C36.7625 11.9988 36.9029 11.556 37.0541 11.1239C37.2269 10.6703 37.4646 10.2707 37.767 9.92506V9.82785C37.767 9.71984 37.7238 9.65504 37.6374 9.63344C37.551 9.59023 37.5078 9.51463 37.5078 9.40662C37.5294 9.38502 37.5402 9.36342 37.5402 9.34182C37.7994 9.23381 37.9938 9.061 38.1234 8.82338C38.253 8.56416 38.4474 8.38055 38.7066 8.27254C39.1603 8.63977 39.5599 8.86658 39.9055 8.95299C40.2512 9.01779 40.7048 9.0718 41.2664 9.115C41.5472 9.41742 41.6985 9.78465 41.7201 10.2167C41.7633 10.6271 41.8389 11.0375 41.9469 11.448C42.1197 12.1392 42.3033 12.8197 42.4977 13.4893C42.7137 14.1374 42.8757 14.807 42.9837 15.4983C43.0486 15.9087 43.1674 16.2975 43.3402 16.6647C43.513 17.032 43.6318 17.41 43.6966 17.7988C43.7398 18.1012 43.7398 18.4469 43.6966 18.8357C43.6534 19.2029 43.6966 19.527 43.8262 19.8078L44.053 20.3262C44.161 20.5638 44.2474 20.8122 44.3122 21.0715C44.3987 21.3307 44.4743 21.5899 44.5391 21.8491C44.7119 22.4972 44.8631 23.1992 44.9927 23.9553C45.1439 24.6897 45.3707 25.3594 45.6731 25.9642C45.7812 26.1802 45.9432 26.3314 46.1592 26.4179C46.3968 26.5043 46.656 26.5691 46.9368 26.6123C47.2177 26.6339 47.4877 26.6447 47.7469 26.6447C48.0277 26.6231 48.2653 26.6123 48.4597 26.6123H48.7838C48.9134 26.6123 49.043 26.6339 49.1726 26.6771C49.259 26.8499 49.3022 27.0011 49.3022 27.1307C49.3022 27.3899 49.2158 27.5951 49.043 27.7463C48.8702 27.8976 48.7838 28.0704 48.7838 28.2648C48.7838 28.3728 48.827 28.4916 48.9134 28.6212C48.827 28.5996 48.6974 28.5888 48.5246 28.5888C48.0277 28.5888 47.5417 28.6752 47.0664 28.848C47.2393 29.2153 47.4661 29.5285 47.7469 29.7877C48.0493 30.0253 48.3625 30.2521 48.6866 30.4681C48.9026 30.2953 49.1294 30.2089 49.367 30.2089C49.6262 30.2089 49.8638 30.2737 50.0799 30.4033C50.3175 30.5113 50.5659 30.5654 50.8251 30.5654C51.0195 30.5654 51.1599 30.5329 51.2463 30.4681C51.4192 30.6626 51.5596 30.8678 51.6676 31.0838C51.7756 31.2782 51.916 31.4618 52.0888 31.6346ZM41.9469 26.4503C41.9037 26.083 41.8281 25.8238 41.7201 25.6726C41.6337 25.4998 41.558 25.2946 41.4932 25.057C41.4068 24.7545 41.342 24.4305 41.2988 24.0849C41.2772 23.7393 41.234 23.4044 41.1692 23.0804C41.018 22.346 40.8452 21.6115 40.6508 20.8771C40.478 20.1426 40.2512 19.4297 39.9703 18.7385C40.0567 18.6089 40.0999 18.4901 40.0999 18.3821V18.2849C39.9055 18.0688 39.7651 17.8096 39.6787 17.5072C39.5923 17.1832 39.5059 16.87 39.4195 16.5675C39.3547 16.2435 39.2575 15.9519 39.1279 15.6927C39.0199 15.4119 38.8362 15.185 38.577 15.0122C38.5122 15.1418 38.4798 15.293 38.4798 15.4659C38.4798 15.6171 38.4906 15.7575 38.5122 15.8871C38.5554 16.0167 38.577 16.1571 38.577 16.3083C38.361 16.4163 38.199 16.5891 38.091 16.8268C38.0046 17.0428 37.8534 17.2156 37.6374 17.3452C37.4646 18.0364 37.2161 18.6953 36.8921 19.3217C36.5681 19.9266 36.2225 20.5314 35.8552 21.1363C35.5096 21.7411 35.1748 22.3568 34.8508 22.9832C34.5267 23.588 34.2675 24.2253 34.0731 24.8949C33.7923 25.0894 33.5979 25.3378 33.4899 25.6402C33.4035 25.9426 33.3603 26.245 33.3603 26.5475C33.5547 26.6555 33.7707 26.7203 34.0083 26.7419C34.2675 26.7419 34.5159 26.7419 34.7536 26.7419C34.9912 26.7419 35.218 26.7635 35.434 26.8067C35.65 26.8499 35.8444 26.9579 36.0172 27.1307C36.2981 27.0443 36.6005 26.9903 36.9245 26.9687C37.2701 26.9255 37.551 26.8283 37.767 26.6771C38.199 26.8283 38.6634 26.9039 39.1603 26.9039C39.4195 26.9039 39.6679 26.8823 39.9055 26.8391C40.1647 26.7959 40.4132 26.7419 40.6508 26.6771C40.8452 26.7203 40.9964 26.7959 41.1044 26.9039C41.2124 26.9903 41.3744 27.0227 41.5904 27.0011C41.6985 26.9147 41.7633 26.8283 41.7849 26.7419C41.8065 26.6339 41.8605 26.5367 41.9469 26.4503ZM83.0006 29.9173C82.8926 30.2629 82.8602 30.6086 82.9034 30.9542C82.8386 31.0406 82.763 31.0946 82.6766 31.1162C82.5902 31.1378 82.5038 31.1702 82.4174 31.2134C82.331 31.235 82.2554 31.2782 82.1906 31.343C82.1474 31.3862 82.1474 31.4834 82.1906 31.6346C81.4777 31.6778 80.7973 31.829 80.1492 32.0883C79.5012 32.3475 78.8639 32.6283 78.2375 32.9307C77.9135 32.8227 77.6327 32.6931 77.395 32.5419C77.1574 32.3907 76.855 32.2935 76.4878 32.2503C76.1205 31.5158 75.7749 30.749 75.4509 29.9497C75.1485 29.1288 74.9973 28.308 74.9973 27.4871C74.9973 26.8823 75.1053 26.3314 75.3213 25.8346C75.3213 25.1866 75.3753 24.5493 75.4833 23.9229C75.5913 23.2964 75.7101 22.6808 75.8397 22.0759C75.9909 21.4495 76.1205 20.823 76.2286 20.1966C76.3366 19.5702 76.3906 18.9329 76.3906 18.2849V17.572C76.3474 17.572 76.2934 17.626 76.2286 17.734C76.1638 17.8204 76.0989 17.9284 76.0341 18.058C75.9909 18.1661 75.9477 18.2741 75.9045 18.3821C75.8613 18.4901 75.8289 18.5549 75.8073 18.5765C75.4401 18.8573 75.1485 19.2137 74.9325 19.6458C74.738 20.0562 74.522 20.445 74.2844 20.8122C73.982 21.2659 73.658 21.7087 73.3123 22.1407C72.9883 22.5728 72.5779 22.9076 72.0811 23.1452V23.21C72.0811 23.318 72.0487 23.3936 71.9838 23.4368C71.919 23.48 71.9082 23.588 71.9514 23.7609C71.4114 23.9337 70.9038 24.1821 70.4285 24.5061C69.9749 24.8301 69.5969 25.2406 69.2945 25.7374C68.8624 25.8454 68.452 25.9966 68.0632 26.191C67.6959 26.3638 67.3179 26.5583 66.9291 26.7743C66.7563 26.8607 66.5727 26.9687 66.3782 27.0983C66.1838 27.2279 65.9894 27.3143 65.795 27.3575C65.6222 27.4223 65.3846 27.4655 65.0821 27.4871C64.8013 27.5087 64.4989 27.5303 64.1749 27.5519C63.8725 27.5735 63.57 27.5843 63.2676 27.5843H62.5548C62.4468 27.5843 62.3063 27.5303 62.1335 27.4223C61.9607 27.3143 61.7663 27.1955 61.5503 27.0659C61.3559 26.9363 61.1507 26.8175 60.9346 26.7095C60.7186 26.5799 60.5134 26.4935 60.319 26.4503C60.1462 25.8886 59.8978 25.3918 59.5738 24.9597C59.2713 24.5061 58.9473 24.0525 58.6017 23.5988C58.4937 23.0804 58.3425 22.5404 58.148 21.9787C57.9752 21.4171 57.662 20.9527 57.2084 20.5854C57.3164 20.4342 57.3704 20.2614 57.3704 20.067C57.3704 19.8294 57.3164 19.6026 57.2084 19.3865C57.1004 19.1705 57.0464 18.9329 57.0464 18.6737C57.0464 18.5009 57.0572 18.3713 57.0788 18.2849C56.8412 18.5441 56.6683 18.8789 56.5603 19.2893C56.4739 19.6782 56.4307 20.0346 56.4307 20.3586C56.4307 20.6178 56.4631 20.8554 56.5279 21.0715C56.3119 21.3739 56.1715 21.7519 56.1067 22.2055C56.0635 22.6592 56.0419 23.0588 56.0419 23.4044C56.0419 23.8365 56.0743 24.2577 56.1391 24.6681C55.7935 25.0137 55.6207 25.435 55.6207 25.9318C55.6207 26.2126 55.6855 26.4611 55.8151 26.6771C55.8151 26.7635 55.7935 26.8283 55.7503 26.8715C55.7071 26.9147 55.6531 26.9471 55.5883 26.9687C55.5451 26.9903 55.4911 27.0227 55.4263 27.0659C55.383 27.0875 55.3614 27.1415 55.3614 27.2279C55.3614 27.3359 55.3614 27.4547 55.3614 27.5843C55.383 27.7139 55.3938 27.8436 55.3938 27.9732C55.3938 28.2756 55.383 28.5888 55.3614 28.9128C55.3398 29.2369 55.329 29.5501 55.329 29.8525C55.329 30.4789 55.383 30.9326 55.4911 31.2134C55.6207 31.4726 55.7719 31.667 55.9447 31.7966C56.1391 31.9262 56.3443 32.0559 56.5603 32.1855C56.7763 32.3151 56.9924 32.5635 57.2084 32.9307C57.1436 33.1251 57.0248 33.2871 56.852 33.4168C56.7007 33.5248 56.5495 33.6436 56.3983 33.7732C56.2687 33.8812 56.1499 34.0108 56.0419 34.162C55.9339 34.3132 55.8907 34.5292 55.9123 34.8101H55.7503C55.4695 34.8101 55.1994 34.8533 54.9402 34.9397C54.681 35.0261 54.411 35.0693 54.1302 35.0693C54.0654 35.0693 54.0005 35.0585 53.9357 35.0369C53.8709 35.0369 53.8061 35.0369 53.7413 35.0369L53.4173 34.8425C53.3093 34.7777 53.2013 34.7453 53.0933 34.7453C52.9853 34.7453 52.8449 34.7669 52.6721 34.8101C52.3696 33.838 52.132 32.8335 51.9592 31.7966C51.808 30.7598 51.7324 29.7445 51.7324 28.7508C51.7324 28.6428 51.754 28.5348 51.7972 28.4268C51.862 28.2972 51.9484 28.254 52.0564 28.2972V27.6815C52.0564 27.0119 52.1104 26.3638 52.2184 25.7374C52.348 25.0894 52.4128 24.4197 52.4128 23.7285C52.4128 23.534 52.402 23.3396 52.3804 23.1452C52.3804 22.9508 52.3696 22.7672 52.348 22.5944C52.456 22.2271 52.564 21.8599 52.6721 21.4927C52.8017 21.1039 52.8665 20.7042 52.8665 20.2938C52.8665 20.121 52.8341 19.9158 52.7693 19.6782C52.9421 19.5486 53.0717 19.3865 53.1581 19.1921C53.2445 18.9761 53.3093 18.7493 53.3525 18.5117C53.3957 18.2525 53.4281 18.004 53.4497 17.7664C53.4713 17.5288 53.4929 17.3128 53.5145 17.1184C53.7305 16.6863 53.8493 16.2219 53.8709 15.7251C53.8925 15.2282 54.0005 14.7638 54.195 14.3318C54.1734 14.2454 54.1626 14.0942 54.1626 13.8781C54.1626 13.4461 54.2274 13.0141 54.357 12.5821C54.5082 12.1284 54.7998 11.7828 55.2318 11.5452C55.6207 11.6964 56.0743 11.772 56.5927 11.772C57.0896 11.772 57.5648 11.6964 58.0184 11.5452C58.148 11.5884 58.2669 11.6424 58.3749 11.7072C58.4829 11.7504 58.5909 11.8044 58.6989 11.8692C58.8285 11.9124 58.9581 11.9556 59.0877 11.9988C59.2173 12.0204 59.3685 12.0204 59.5413 11.9988C59.7574 12.6253 59.941 13.2625 60.0922 13.9105C60.265 14.5586 60.3946 15.2174 60.481 15.8871C60.5242 16.1679 60.535 16.4703 60.5134 16.7944C60.5134 17.1184 60.535 17.4208 60.5782 17.7016C60.5998 17.8744 60.6538 18.0364 60.7402 18.1877C60.8266 18.3173 60.913 18.4685 60.9995 18.6413C61.0859 18.8141 61.1507 19.0085 61.1939 19.2245C61.2587 19.4405 61.2803 19.7106 61.2587 20.0346C61.4963 20.5962 61.7555 21.1363 62.0363 21.6547C62.3388 22.1515 62.6628 22.6484 63.0084 23.1452C63.2028 23.21 63.3756 23.2964 63.5268 23.4044C63.678 23.4908 63.7753 23.6421 63.8185 23.8581C64.0129 23.8581 64.1857 23.8905 64.3369 23.9553L64.8877 24.1173C65.7086 23.8581 66.4646 23.5124 67.1559 23.0804C67.8688 22.6484 68.614 22.2812 69.3917 21.9787C70.3421 21.0499 71.163 20.0238 71.8542 18.9005C72.5455 17.7556 73.2367 16.6215 73.928 15.4983V14.7854C74.0576 14.7206 74.1656 14.645 74.252 14.5586C74.36 14.4506 74.4896 14.375 74.6408 14.3318C74.6624 14.0726 74.7164 13.8241 74.8029 13.5865C74.9109 13.3273 75.0189 13.0897 75.1269 12.8737C75.2565 12.6361 75.3645 12.4092 75.4509 12.1932C75.5373 11.9556 75.5805 11.7072 75.5805 11.448C75.5805 11.2968 75.5697 11.1671 75.5481 11.0591C75.8721 10.7351 76.261 10.5731 76.7146 10.5731C77.1466 10.5731 77.5787 10.6811 78.0107 10.8971C78.4643 11.0915 78.8855 11.2752 79.2744 11.448C79.512 11.9664 79.6848 12.5172 79.7928 13.1005C79.9224 13.6621 80.0088 14.2454 80.052 14.8502C80.0952 15.4551 80.1168 16.0599 80.1168 16.6647V18.9653C80.0952 19.1381 80.0304 19.2677 79.9224 19.3541C79.836 19.4189 79.7712 19.527 79.728 19.6782V20.0022C79.728 20.1102 79.7172 20.2182 79.6956 20.3262C79.6956 20.7798 79.6416 21.2551 79.5336 21.7519C79.4256 22.3784 79.2852 23.0156 79.1124 23.6637C78.9612 24.2901 78.8855 24.9273 78.8855 25.5754C78.8855 25.813 78.8963 26.0506 78.9179 26.2882C78.9396 26.5259 78.9828 26.7635 79.0476 27.0011C78.9396 27.1955 78.8855 27.4439 78.8855 27.7463C78.8855 28.092 78.9396 28.416 79.0476 28.7184C79.1772 28.9992 79.3284 29.2801 79.5012 29.5609C79.8036 29.5609 80.106 29.5501 80.4085 29.5285C80.7109 29.5069 81.0241 29.4961 81.3481 29.4961C81.6505 29.4961 81.9314 29.5285 82.1906 29.5933C82.4498 29.6365 82.7198 29.7445 83.0006 29.9173ZM101.211 29.9173C101.211 30.2845 101.114 30.6086 100.919 30.8894C100.746 31.1486 100.682 31.4726 100.725 31.8614C100.422 32.0343 100.174 32.2611 99.9795 32.5419C99.7851 32.8227 99.6015 33.1143 99.4286 33.4168C98.0029 34.3456 96.4692 35.0909 94.8275 35.6525C93.2074 36.2358 91.5333 36.5274 89.8051 36.5274C89.6971 36.5274 89.5999 36.4734 89.5135 36.3654C89.4271 36.279 89.3407 36.1818 89.2543 36.0738C89.1679 35.9657 89.0707 35.8577 88.9627 35.7497C88.8763 35.6633 88.7683 35.6201 88.6387 35.6201C88.4874 35.6201 88.3686 35.6525 88.2822 35.7173C88.2822 35.6741 88.2822 35.6309 88.2822 35.5877C88.3038 35.5661 88.3146 35.5337 88.3146 35.4905C88.3146 35.2313 88.2822 34.9613 88.2174 34.6804C88.1526 34.4212 88.1202 34.162 88.1202 33.9028C88.1202 33.6004 88.1742 33.352 88.2822 33.1575H88.6711C88.8871 33.1575 89.0923 33.1467 89.2867 33.1251C89.5027 33.0819 89.7295 33.0603 89.9672 33.0603C90.2048 33.0603 90.4208 33.1251 90.6152 33.2547C91.8033 33.2115 92.9266 32.9955 93.985 32.6067C95.0651 32.1963 96.156 31.7966 97.2577 31.4078C97.4305 31.1702 97.5277 30.911 97.5493 30.6302C97.5925 30.3277 97.6789 30.0469 97.8085 29.7877C97.2469 29.3125 96.6744 28.9452 96.0912 28.686C95.5296 28.4052 94.8707 28.308 94.1147 28.3944C93.661 28.1136 93.175 27.9516 92.6565 27.9084C92.1597 27.8652 91.6521 27.8004 91.1336 27.7139C91.004 27.6923 90.8636 27.6707 90.7124 27.6491C90.5828 27.6059 90.4424 27.5843 90.2912 27.5843C90.1832 27.5843 90.0752 27.6167 89.9672 27.6815C89.8807 27.7247 89.8591 27.8004 89.9023 27.9084C89.7943 27.7355 89.6431 27.6383 89.4487 27.6167C89.2759 27.5735 89.1247 27.4871 88.9951 27.3575C88.3038 27.3143 87.699 27.1955 87.1806 27.0011C86.6621 26.7851 86.0897 26.5475 85.4632 26.2882C85.2904 26.2234 85.1176 26.1802 84.9448 26.1586C84.7936 26.1154 84.6424 26.0506 84.4912 25.9642C84.1023 25.7698 83.7891 25.5106 83.5515 25.1866C83.3139 24.8625 83.1303 24.5061 83.0007 24.1173C82.8494 23.7069 82.7414 23.2856 82.6766 22.8536C82.6118 22.4216 82.547 22.0219 82.4822 21.6547C82.6766 21.3091 82.8602 20.9527 83.0331 20.5854C83.1843 20.2182 83.3139 19.8294 83.4219 19.4189C83.5515 19.3541 83.6811 19.3001 83.8107 19.2569C83.9403 19.2137 84.0807 19.1597 84.2319 19.0949C84.2103 19.0517 84.1995 18.9977 84.1995 18.9329C84.1995 18.8249 84.2319 18.7169 84.2967 18.6089C84.3832 18.5009 84.4048 18.3929 84.3615 18.2849C84.8368 17.8528 85.2904 17.41 85.7224 16.9564C86.1761 16.4811 86.5649 15.9627 86.8889 15.4011C87.213 15.293 87.4722 15.131 87.6666 14.915C87.861 14.699 88.0554 14.483 88.2498 14.267C88.4442 14.0294 88.6603 13.8241 88.8979 13.6513C89.1355 13.4569 89.4379 13.3381 89.8051 13.2949C89.8915 13.1437 90.0104 13.0249 90.1616 12.9385C90.3128 12.8305 90.464 12.7333 90.6152 12.6469C90.7664 12.5604 90.9068 12.4632 91.0364 12.3552C91.166 12.2472 91.2632 12.096 91.3281 11.9016C91.6737 11.9016 91.9869 11.8368 92.2677 11.7072C92.5701 11.5776 92.8618 11.4372 93.1426 11.286C93.4234 11.1347 93.7042 10.9943 93.985 10.8647C94.2875 10.7351 94.6115 10.6703 94.9571 10.6703C95.0435 10.6703 95.1299 10.6811 95.2163 10.7027C95.3027 10.7027 95.3999 10.7135 95.508 10.7351C95.6592 10.8863 95.7564 11.0699 95.7996 11.286C95.8644 11.4804 95.9076 11.6964 95.9292 11.934C95.9508 12.1716 95.9616 12.4092 95.9616 12.6469C95.9832 12.8845 96.0264 13.1005 96.0912 13.2949C95.8968 13.6621 95.6808 14.0294 95.4432 14.3966C95.2271 14.7638 94.9355 15.0446 94.5683 15.239H94.5035C94.3523 15.2606 94.2119 15.2282 94.0823 15.1418C93.9526 15.0554 93.8014 15.0122 93.6286 15.0122C93.5206 15.0122 93.4342 15.0446 93.3694 15.1094L93.2074 15.2714C93.1642 15.3146 93.0994 15.3579 93.013 15.4011C92.9482 15.4443 92.851 15.4443 92.7214 15.4011C92.4189 15.5091 92.3001 15.6927 92.3649 15.9519C91.9545 15.9951 91.6089 16.1247 91.3281 16.3407C91.0472 16.5351 90.788 16.762 90.5504 17.0212C90.3128 17.2588 90.0752 17.4856 89.8375 17.7016C89.5999 17.896 89.3191 18.004 88.9951 18.0256C88.6279 18.6737 88.1742 19.2461 87.6342 19.743C87.1157 20.2398 86.6837 20.8014 86.3381 21.4279C86.4029 21.6007 86.4461 21.7843 86.4677 21.9787C86.4893 22.1731 86.5217 22.3784 86.5649 22.5944C86.7593 22.8536 86.9861 23.0804 87.2454 23.2748C87.5262 23.4692 87.7962 23.6637 88.0554 23.8581H88.1526C88.5847 23.8581 88.9843 23.9445 89.3515 24.1173C89.7187 24.2685 90.1076 24.3441 90.518 24.3441C90.734 24.3441 90.9176 24.3009 91.0688 24.2145C91.6305 24.3441 92.1813 24.4521 92.7214 24.5385C93.283 24.6249 93.8446 24.6897 94.4063 24.7329C94.6871 24.7761 94.9679 24.7977 95.2487 24.7977C95.5512 24.7977 95.832 24.8301 96.0912 24.8949C96.3288 24.9597 96.5664 25.0462 96.804 25.1542C97.0417 25.2406 97.2793 25.3378 97.5169 25.4458C98.0137 25.6618 98.4782 25.8994 98.9102 26.1586C99.3638 26.4179 99.7635 26.7311 100.109 27.0983C100.455 27.4439 100.725 27.8544 100.919 28.3296C101.114 28.7832 101.211 29.3125 101.211 29.9173ZM110.121 29.5609C110.013 29.7337 109.884 29.8957 109.733 30.0469C109.581 30.1765 109.441 30.3169 109.311 30.4681C109.16 30.5329 108.987 30.5654 108.793 30.5654C108.62 30.5654 108.447 30.5654 108.274 30.5654C108.123 30.5437 107.972 30.5437 107.821 30.5654C107.691 30.5654 107.583 30.6086 107.497 30.695C107.324 30.6518 107.194 30.5762 107.108 30.4681C107.022 30.3385 106.87 30.2629 106.654 30.2413C106.568 30.2197 106.482 30.2197 106.395 30.2413C106.071 29.8741 105.769 29.4853 105.488 29.0748C105.229 28.6644 104.98 28.2756 104.743 27.9084C104.721 27.1091 104.656 26.299 104.548 25.4782C104.527 25.2838 104.494 25.0894 104.451 24.8949C104.408 24.7005 104.375 24.5169 104.354 24.3441C104.354 24.1281 104.365 23.9229 104.386 23.7285C104.429 23.5124 104.462 23.318 104.483 23.1452C104.57 22.5188 104.667 21.9031 104.775 21.2983C104.883 20.6934 104.98 20.0778 105.067 19.4513C105.153 18.8897 105.196 18.3065 105.196 17.7016C105.196 17.0752 105.099 16.4919 104.905 15.9519L104.872 15.7899C104.915 15.6171 104.959 15.4767 105.002 15.3687C105.067 15.239 105.11 15.0986 105.131 14.9474C105.175 14.7098 105.121 14.537 104.969 14.429C105.034 14.2562 105.142 14.1482 105.293 14.105C105.445 14.0402 105.531 13.9105 105.553 13.7161C105.574 13.6297 105.574 13.5433 105.553 13.4569C105.725 13.3921 105.898 13.3381 106.071 13.2949C106.266 13.2301 106.449 13.2193 106.622 13.2625C106.903 13.3057 107.151 13.4029 107.367 13.5541C107.583 13.6837 107.788 13.8349 107.983 14.0078C108.328 15.0446 108.469 16.1463 108.404 17.3128C108.339 18.4577 108.231 19.6134 108.08 20.7798C107.929 21.9463 107.832 23.0912 107.788 24.2145C107.745 25.3162 107.918 26.3422 108.307 27.2927L108.372 27.3251C108.48 27.3467 108.566 27.3143 108.631 27.2279C108.696 27.1199 108.782 27.0767 108.89 27.0983C108.977 27.1415 109.031 27.1631 109.052 27.1631C109.139 27.5951 109.279 28.0056 109.473 28.3944C109.668 28.7832 109.884 29.1721 110.121 29.5609Z" fill="#110A0A"/>
</svg>
